<?xml version="1.0" encoding="UTF-8"?>
<svg width="758" height="1024" version="1.1" viewBox="0 0 203.2 270.93" xmlns="http://www.w3.org/2000/svg" xmlns:cc="http://creativecommons.org/ns#" xmlns:dc="http://purl.org/dc/elements/1.1/" xmlns:rdf="http://www.w3.org/1999/02/22-rdf-syntax-ns#" xmlns:xlink="http://www.w3.org/1999/xlink">
 <style/>
 <metadata>
  <rdf:RDF>
   <cc:Work rdf:about="">
    <dc:format>image/svg+xml</dc:format>
    <dc:type rdf:resource="http://purl.org/dc/dcmitype/StillImage"/>
    <dc:title/>
   </cc:Work>
  </rdf:RDF>
 </metadata>
 <defs>

 <path id="battery" d="M748.5,910.6c0,21.5-7.7,40.1-23.1,55.8C710,982.1,688.7,990,661.5,990H346c-30.8,0-54.2-8.6-70.3-25.8c-16.1-17.2-24.2-38.6-24.2-64.4V218.2c0-19.3,6.4-35.4,19.3-48.3c12.9-12.9,31.5-19.3,55.8-19.3h348.8c25.8,0,44.4,6.4,55.8,19.3c11.4,12.9,17.2,29.7,17.2,50.5V910.6z M411.4,806.5v53.7h177.1v-53.7H411.4z M473.7,239.7v61.2h-62.3v53.7h62.3v62.3h52.6v-62.3h62.3v-53.7h-62.3v-61.2H473.7L473.7,239.7z M500.5,10c7.2,0.7,14.3,1.1,21.5,1.1c5.7,0,12.2,0.2,19.3,0.5c7.2,0.4,14,0.5,20.4,0.5c12.9,0.7,21.3,4.7,25.2,11.8c3.9,7.2,5.9,17.2,5.9,30.1v35.4v15H406.1V63.7c0-5.7,0.4-13.1,1.1-22c0.7-8.9,3.9-15.9,9.7-20.9C423.3,15,434,12,449,11.6C464,11.3,481.2,10.7,500.5,10z"/>
</defs>

 <g transform="rotate(90 101.21 102.57)" font-family="Arial, Helvetica, sans-serif">
  <use transform="translate(242,1) scale(0.008)" width="100%" height="100%" xlink:href="#battery"/>
  <text x="250" y="8" font-size="8px" text-anchor="start">#BAT%</text>

  <text x="130" y="120" font-size="100px" text-anchor="middle">#TIME</text>
  <text x="130" y="160" font-size="10px" text-anchor="middle">#DATE</text>


 </g>
</svg>
